<svg width="58" height="58" viewBox="-3 -3 64 64" fill="none" xmlns="http://www.w3.org/2000/svg">
  <path
     d="M29 58C45.0163 58 58 45.0163 58 29C58 12.9837 45.0163 0 29 0C12.9837 0 0 12.9837 0 29C0 45.0163 12.9837 58 29 58Z"
     fill="#5F67FA"/>
  <path
     d="M31.8224 19.5655C31.3856 19.5655 31.0384 19.2056 31.0384 18.7783V16.6418C31.0384 16.2032 30.68 15.8546 30.2544 15.8546H18.2592C17.8224 15.8546 17.4752 16.2145 17.4752 16.6418V18.7783C17.4752 19.2169 17.4752 19.9253 17.4752 20.3639V35.0161C17.4752 35.4546 17.8336 35.8032 18.2592 35.8032H39.9536C40.3904 35.8032 40.7376 35.4434 40.7376 35.0161V20.3526C40.7376 19.9141 40.3792 19.5655 39.9536 19.5655H31.8224Z"
     stroke="white"
     stroke-width="1.5"
     stroke-miterlimit="10"/>
  <path
     d="M29 35.8032V39.2892"
     stroke="white"
     stroke-width="1.5"
     stroke-miterlimit="10"/>
  <path
     d="M43 40.5486H15"
     stroke="white"
     stroke-width="1.5"
     stroke-miterlimit="10"/>
  <path
     d="M29 43C30.2185 43 31.2064 42.0082 31.2064 40.7847C31.2064 39.5613 30.2185 38.5695 29 38.5695C27.7814 38.5695 26.7936 39.5613 26.7936 40.7847C26.7936 42.0082 27.7814 43 29 43Z"
     fill="white"/>
  <path
     d="m 23.869693,25.057074 c -0.503173,0 -0.920276,0.112551 -1.251311,0.337655 -0.350896,0.238345 -0.523034,0.562759 -0.523034,0.979862 0,0.410483 0.178758,0.728276 0.542896,0.946759 0.145656,0.07945 0.503173,0.205241 1.085794,0.39062 0.523034,0.158897 0.834206,0.264828 0.940137,0.317793 0.297932,0.152276 0.450207,0.357518 0.450207,0.622345 0,0.211862 -0.105931,0.37738 -0.317793,0.496552 -0.211862,0.119172 -0.496551,0.185379 -0.854069,0.185379 -0.397241,0 -0.688551,-0.07283 -0.880551,-0.218482 -0.211863,-0.158897 -0.344276,-0.430345 -0.397242,-0.801104 h -0.715034 c 0.03972,0.595862 0.251586,1.032828 0.642207,1.310897 0.324413,0.225103 0.77462,0.344276 1.35062,0.344276 0.595862,0 1.059311,-0.119173 1.390345,-0.357518 0.331035,-0.244965 0.496552,-0.576 0.496552,-0.999724 0,-0.436965 -0.205241,-0.774621 -0.609104,-1.019586 -0.185379,-0.112552 -0.602482,-0.264828 -1.238069,-0.463448 -0.443586,-0.132414 -0.715034,-0.231724 -0.820965,-0.291311 -0.238345,-0.125793 -0.350897,-0.29131 -0.350897,-0.503172 0,-0.238345 0.09931,-0.410483 0.304552,-0.516414 0.165517,-0.09269 0.403862,-0.139034 0.715035,-0.139034 0.357517,0 0.622344,0.06621 0.807724,0.205241 0.185379,0.132414 0.304551,0.357517 0.370758,0.662069 h 0.715035 C 25.677141,26.030315 25.491762,25.652936 25.160727,25.40797 24.849555,25.169625 24.41921,25.057074 23.869693,25.057074 Z" fill="white"/>
  <path
     d="m 26.494693,25.149763 v 4.727173 h 0.721655 v -3.376552 h 0.02648 l 1.449931,3.376552 h 0.622344 l 1.449932,-3.376552 h 0.02648 v 3.376552 h 0.721655 v -4.727173 h -0.854069 l -1.641931,3.787035 h -0.01986 l -1.648551,-3.787035 z"
     fill="white"/>
  <path
     d="m 32.442969,25.149763 v 4.727173 h 2.158345 c 0.503172,0 0.893793,-0.09269 1.171862,-0.278069 0.324414,-0.225103 0.489931,-0.569379 0.489931,-1.046069 0,-0.317793 -0.07945,-0.576 -0.238345,-0.768 -0.158896,-0.192 -0.397241,-0.317793 -0.708414,-0.377379 0.238345,-0.08607 0.417104,-0.218483 0.549518,-0.390621 0.132414,-0.185379 0.19862,-0.410483 0.19862,-0.67531 0,-0.364138 -0.125793,-0.648828 -0.377379,-0.86069 -0.264827,-0.225104 -0.622345,-0.331035 -1.085793,-0.331035 z m 0.721655,0.595862 h 1.257931 c 0.317793,0 0.556138,0.05297 0.701793,0.165518 0.145656,0.105931 0.218483,0.278069 0.218483,0.516414 0,0.251586 -0.07283,0.436965 -0.218483,0.556137 -0.145655,0.112552 -0.384,0.172138 -0.715034,0.172138 h -1.24469 z m 0,1.999449 h 1.357242 c 0.344276,0 0.602482,0.05959 0.768,0.185379 0.165517,0.125793 0.251586,0.331035 0.251586,0.609104 0,0.271448 -0.112552,0.470069 -0.324414,0.595862 -0.172138,0.09269 -0.410483,0.145655 -0.715034,0.145655 h -1.33738 z"
     fill="white"/>
</svg>
